<svg xmlns="http://www.w3.org/2000/svg" width="512" height="512" viewBox="0 0 512 512" version="1.1">
	<path d="M 235.667 51.667 C 235.300 52.033, 235 54.709, 235 57.612 L 235 62.890 239.750 63.265 C 242.744 63.501, 241.357 63.710, 236 63.831 C 231.325 63.936, 225.813 64.301, 223.750 64.642 C 219.676 65.315, 218.738 67.465, 222.057 68.518 C 224.559 69.312, 226 72.801, 226 78.065 L 226 82 214.750 82.015 C 208.563 82.024, 202.971 82.367, 202.324 82.779 C 200.338 84.042, 198.708 92.777, 199.235 99.334 C 199.713 105.297, 202.932 113.620, 205.384 115.235 C 205.998 115.639, 210.832 115.976, 216.128 115.985 C 223.532 115.996, 226.046 115.649, 227.016 114.481 C 228.086 113.191, 231.597 113.003, 250.305 113.231 C 263.859 113.397, 272.463 113.885, 272.668 114.500 C 272.886 115.153, 265.317 115.388, 250.854 115.179 C 233.314 114.924, 228.532 115.132, 227.868 116.179 C 227.408 116.905, 227.019 123.800, 227.006 131.500 C 226.983 144.246, 226.760 145.973, 224.519 150.787 C 220.653 159.090, 209.153 169.215, 195.500 176.334 L 190.500 178.941 181.547 175.851 C 156.201 167.106, 130.203 176.857, 116.691 200.176 L 112.883 206.749 96.913 207.473 C 85.170 208.005, 80.565 207.884, 79.519 207.015 C 78.674 206.315, 77.974 203.527, 77.797 200.167 L 77.500 194.500 73.500 194.500 L 69.500 194.500 69.204 222.500 C 69.041 237.900, 69.182 252.412, 69.515 254.750 C 70.089 258.768, 70.303 259, 73.419 259 C 76.490 259, 76.777 258.709, 77.612 254.750 L 78.509 250.500 97.004 250.500 L 115.500 250.500 117.384 254.358 C 119.546 258.785, 119.174 259.296, 112.500 261.070 C 102.621 263.696, 103.532 262.696, 103.208 271.271 L 102.916 279 93.892 279 C 84.690 279, 82.227 279.677, 78.250 283.299 C 74.961 286.295, 75.251 292.180, 79 298.500 L 81.966 303.500 81.983 354.100 L 82 404.699 79.018 409.100 C 75.740 413.937, 75.301 417.393, 77.345 422.282 C 79.507 427.453, 81.399 428.434, 88.698 428.164 C 96.169 427.888, 96.984 428.362, 100.667 435.129 L 103.318 440 140.042 440 L 176.767 440 177.245 442.500 C 177.717 444.968, 177.636 445, 170.933 445 C 163.706 445, 161 446.377, 161 450.052 C 161 451.255, 160.075 452.194, 158.500 452.589 C 156.705 453.040, 156 453.891, 156 455.608 L 156 458 256.570 458 L 357.139 458 356.820 455.750 C 356.594 454.164, 355.719 453.410, 353.851 453.193 C 351.729 452.948, 351.076 452.219, 350.573 449.540 C 349.788 445.354, 348.144 444.718, 340.274 445.561 L 334 446.233 334 443.116 L 334 440 370.830 440 L 407.661 440 411.443 433.533 L 415.225 427.065 425.863 426.783 L 436.500 426.500 436.500 354.500 L 436.500 282.501 426 282.425 C 418.237 282.369, 414.666 281.913, 412.300 280.675 C 409.486 279.202, 404.914 279, 374.441 279 L 339.783 279 340.350 276.742 C 341.478 272.246, 340.624 272.056, 317.954 271.770 L 296.500 271.500 296.500 268 L 296.500 264.500 288.750 264.208 L 281 263.916 280.821 222.958 C 280.723 200.431, 280.611 180.988, 280.571 179.750 C 280.528 178.396, 281.091 177.500, 281.984 177.500 C 283.042 177.500, 283.967 179.936, 285.211 186 C 288.573 202.386, 293.024 211.939, 303.180 224.563 C 310.255 233.358, 319.636 240.700, 330.500 245.942 C 342.415 251.692, 349.263 253.151, 367 253.716 C 386.117 254.326, 395.305 252.493, 410.500 245.041 C 432.640 234.183, 449.057 215.588, 457.115 192.244 C 460.424 182.655, 460.476 182.237, 460.390 166 C 460.313 151.664, 459.967 148.244, 457.753 139.926 C 449.723 109.761, 433.075 88.178, 408.089 75.540 C 395.615 69.231, 373.395 65.870, 358 67.965 C 338.758 70.583, 323.812 78.314, 308.510 93.567 C 303.175 98.884, 297.919 103.233, 296.352 103.626 C 293.598 104.318, 275.377 100.777, 273.855 99.255 C 273.277 98.677, 272.631 77.269, 272.950 69.250 C 272.978 68.563, 273.900 68, 275 68 C 276.333 68, 277 67.333, 277 66 C 277 64.190, 276.333 64, 270 64 L 263 64 263 59.082 C 263 50.753, 263.425 51, 249.060 51 C 242.060 51, 236.033 51.300, 235.667 51.667 M 222 94.500 C 222 98.167, 222.436 101, 223 101 C 223.564 101, 224 98.167, 224 94.500 C 224 90.833, 223.564 88, 223 88 C 222.436 88, 222 90.833, 222 94.500 M 355.750 90.689 C 353.472 91.285, 353.521 94.117, 355.862 97.115 C 359.334 101.562, 364.040 110.722, 366.915 118.627 C 369.444 125.579, 370.095 126.538, 372.487 126.826 C 375.169 127.149, 375.192 127.101, 374.848 121.826 L 374.500 116.500 378 116.813 C 383.304 117.288, 393.290 122.308, 398.593 127.165 C 404.693 132.751, 410.634 141.935, 412.663 148.912 C 414.577 155.498, 418.153 159.366, 423.926 161.096 C 430.941 163.198, 431.533 162.242, 431.318 149.159 C 431 129.872, 426.541 118.517, 414.530 106.417 C 402.555 94.352, 390.249 89.951, 369 90.133 C 362.675 90.188, 356.712 90.438, 355.750 90.689 M 229.250 102.652 C 228.563 102.935, 228.002 104.142, 228.003 105.333 C 228.007 107.481, 228.199 107.503, 250.074 107.792 L 272.141 108.084 271.820 105.292 L 271.500 102.500 251 102.319 C 239.725 102.219, 229.938 102.369, 229.250 102.652 M 290.553 117.495 C 290.056 120.810, 290.288 122.574, 291.440 124.217 C 292.298 125.442, 293 127.245, 293 128.223 C 293 130.616, 294.228 130.460, 296.721 127.750 C 298.897 125.383, 302.990 118.942, 302.996 117.873 C 303 117.186, 293.708 113, 292.178 113 C 291.655 113, 290.924 115.023, 290.553 117.495 M 305.662 120.975 C 304.810 122.684, 303.188 125.578, 302.058 127.406 L 300.004 130.729 305.752 133.276 C 319.888 139.541, 334.108 144.994, 337.881 145.597 C 341.855 146.232, 345 145.032, 345 142.880 C 345 142.093, 311.112 119.368, 308.356 118.308 C 307.727 118.066, 306.515 119.266, 305.662 120.975 M 277.958 125.550 C 276.901 126.824, 276.937 127.366, 278.158 128.587 C 279.772 130.200, 283 129.538, 283 127.593 C 283 126.305, 281.026 124, 279.922 124 C 279.550 124, 278.666 124.698, 277.958 125.550 M 365.265 133.438 C 355.050 135.914, 347.907 143.172, 345.800 153.219 C 343.028 166.432, 351.093 180.527, 363.899 184.852 C 369.088 186.604, 378.887 186.234, 383.565 184.110 C 393.819 179.453, 400.042 170.222, 400.124 159.549 C 400.222 146.735, 392.431 136.910, 379.501 133.542 C 372.642 131.756, 372.223 131.753, 365.265 133.438 M 363.463 136.591 C 353.526 140.120, 348 147.952, 348 158.510 C 348 172.736, 358.356 183.220, 372.468 183.281 C 379.717 183.313, 384.346 181.487, 390.046 176.347 C 400.446 166.970, 400.868 152.773, 391.040 142.945 C 383.738 135.643, 373.062 133.183, 363.463 136.591 M 249.073 140.635 C 246.432 143.992, 246.444 147.024, 249.113 150.417 C 250.884 152.668, 251.881 153.055, 255.263 152.802 C 261.016 152.372, 263.717 148.702, 262.034 143.602 C 259.998 137.435, 252.873 135.804, 249.073 140.635 M 404.344 163.750 C 402.697 168.614, 398.842 176.340, 396.590 179.293 L 394.056 182.615 405.778 198.272 C 412.225 206.884, 418.175 214.204, 419 214.540 C 422.460 215.949, 433.866 199.257, 438.884 185.443 C 441.918 177.088, 443.639 167.842, 442.501 166.002 C 442.053 165.277, 440.363 165.769, 437.465 167.468 C 429.773 171.976, 425.877 171.819, 415.182 166.572 C 410.057 164.057, 405.655 162, 405.400 162 C 405.146 162, 404.670 162.787, 404.344 163.750 M 309.250 171.973 C 305.141 173.838, 305 174.056, 305 178.525 C 305 184.434, 309.165 196.863, 313.580 204.132 C 320.914 216.205, 337.446 227.859, 351.500 230.865 C 364.009 233.539, 374 233.389, 374 230.525 C 374 229.802, 372.697 226.125, 371.104 222.355 C 369.511 218.585, 367.661 212.800, 366.992 209.500 C 365.288 201.094, 364.541 200, 360.502 200 C 353.914 200, 346.010 196.108, 339.299 189.560 C 335.835 186.180, 333 182.739, 333 181.914 C 333 180.980, 334.710 179.957, 337.533 179.202 C 342.784 177.798, 343.877 175.988, 341.587 172.492 C 339.981 170.042, 339.732 170, 326.727 170.022 C 315.830 170.040, 312.751 170.384, 309.250 171.973 M 152.112 180.516 C 139.901 183.946, 128.130 193.045, 121.732 204 C 116.182 213.504, 114.536 227.533, 117.584 239.356 C 123.268 261.400, 143.093 276.958, 165.500 276.958 C 191.791 276.958, 213.908 254.843, 213.964 228.500 C 214.007 208.047, 200.596 189.761, 180 182.187 C 171.688 179.130, 159.621 178.407, 152.112 180.516 M 149.762 182.942 C 133.282 188.210, 120.925 202.661, 117.982 220.107 C 115.676 233.777, 121.450 250.583, 132.128 261.278 C 150.240 279.421, 179.825 279.335, 198.073 261.087 C 209.370 249.790, 214.221 233.987, 211.060 218.781 C 205.606 192.542, 175.250 174.794, 149.762 182.942 M 55.500 194.871 L 51.500 195.500 51.574 202.500 C 51.629 207.622, 52.232 210.629, 53.824 213.710 C 56.707 219.289, 56.757 228.035, 53.941 234.400 C 51.759 239.334, 50.881 250.285, 52.269 255.250 C 53.007 257.888, 53.302 258, 59.519 258 L 66 258 65.900 228.750 C 65.845 212.662, 65.490 198.375, 65.111 197 C 64.351 194.248, 62.324 193.799, 55.500 194.871 M 158.994 205.875 C 145.270 210.375, 138.587 223.050, 143.900 234.500 C 149.585 246.753, 163.993 251.541, 176.119 245.207 C 179.457 243.463, 182.600 240.800, 184.483 238.120 C 187.166 234.303, 187.500 233.026, 187.500 226.591 C 187.500 220.385, 187.112 218.767, 184.772 215.232 C 181.026 209.571, 174.476 205.908, 167.250 205.432 C 164.088 205.223, 160.372 205.423, 158.994 205.875 M 253.581 208.014 C 247.998 210.194, 242.444 215.094, 241.559 218.620 C 241.002 220.839, 240.495 221, 234.052 221 C 228.989 221, 226.706 221.437, 225.507 222.636 C 223.021 225.122, 225.080 226.347, 232.543 226.822 C 238.943 227.229, 239.121 227.317, 240.997 230.993 C 244.109 237.095, 252.456 243, 257.968 243 C 261.884 243, 259.945 240.448, 254.050 237.843 C 249.918 236.016, 247.475 234.187, 246.054 231.856 C 243.542 227.737, 243.333 220.398, 245.633 217.114 C 247.745 214.099, 254.506 211.050, 259.143 211.022 C 261.536 211.008, 262.995 210.454, 263.396 209.410 C 264.876 205.553, 261.218 205.032, 253.581 208.014 M 159.108 215.661 C 152.277 219.138, 150.457 230.710, 156.031 235.225 C 163.370 241.171, 175.551 237.907, 177.910 229.364 C 179.172 224.792, 177.442 219.390, 173.864 216.736 C 170.187 214.007, 163.336 213.508, 159.108 215.661 M 250.923 219.923 C 247.611 223.235, 247.359 224.859, 249.510 229.020 C 252.240 234.298, 257.763 235.547, 262.365 231.927 C 266.040 229.037, 266.039 223.312, 262.364 219.636 C 258.782 216.055, 254.688 216.158, 250.923 219.923 M 114.605 266.299 C 113.424 267.163, 112.941 268.586, 113.164 270.542 C 113.877 276.787, 124 277.383, 124 271.180 C 124 266.101, 118.666 263.330, 114.605 266.299 M 211 269.850 C 211 272.052, 212.573 272.915, 215.298 272.208 C 218.029 271.500, 216.887 268.547, 213.741 268.184 C 211.568 267.933, 211 268.278, 211 269.850 M 277.667 268.667 C 277.300 269.033, 277 270.158, 277 271.167 C 277 272.444, 277.741 273, 279.441 273 C 282.265 273, 283.263 271.848, 282.396 269.590 C 281.782 267.989, 278.906 267.428, 277.667 268.667 M 219 270.500 C 219 271.798, 222.778 272, 247 272 C 271.222 272, 275 271.798, 275 270.500 C 275 269.202, 271.222 269, 247 269 C 222.778 269, 219 269.202, 219 270.500 M 406.096 285.941 C 404.585 286.875, 405.281 290, 407 290 C 408.464 290, 409.466 287.066, 408.374 285.974 C 407.873 285.473, 406.877 285.458, 406.096 285.941 M 85 287.927 C 85 289.358, 85.642 290, 87.073 290 C 88.504 290, 89.043 289.461, 88.812 288.261 C 88.310 285.655, 85 285.364, 85 287.927 M 277.402 293.158 C 277.073 293.691, 277.589 294.993, 278.549 296.054 C 280.120 297.790, 280.408 297.824, 281.453 296.396 C 282.123 295.479, 283.643 294.956, 285.056 295.155 L 287.500 295.500 287.775 311.120 L 288.049 326.740 285.267 327.297 C 282.685 327.813, 282.213 328.726, 278.713 339.975 C 276.638 346.641, 275.278 352.637, 275.690 353.298 C 276.102 353.959, 276.729 357.200, 277.083 360.500 C 277.437 363.800, 278.744 370.235, 279.987 374.800 C 282.064 382.432, 282.477 383.145, 285.123 383.675 L 288 384.250 288 401.125 L 288 418 285.200 418 C 283.660 418, 281.899 417.499, 281.287 416.887 C 279.939 415.539, 278 416.554, 278 418.609 C 278 419.792, 279.187 420.038, 283.750 419.800 L 289.500 419.500 289.772 400.229 L 290.043 380.959 287.061 380.362 C 284.835 379.917, 283.825 378.971, 283.083 376.633 C 281.125 370.466, 278.806 356.848, 279.356 354.746 C 279.664 353.568, 279.525 352.131, 279.047 351.552 C 278.536 350.935, 278.957 348.019, 280.063 344.500 C 281.101 341.200, 282.428 336.587, 283.013 334.250 C 283.965 330.446, 284.388 330, 287.039 330 L 290 330 290 312.535 C 290 296.911, 289.816 294.976, 288.250 294.171 C 285.535 292.775, 278.070 292.078, 277.402 293.158 M 381 294.465 C 381 295.748, 382.735 296, 391.583 296 C 399.604 296, 402.066 295.697, 401.752 294.750 C 401.465 293.885, 398.203 293.412, 391.169 293.215 C 382.570 292.974, 381 293.167, 381 294.465 M 97.015 295.750 C 97.025 296.874, 97.293 297.089, 97.765 296.351 C 98.169 295.719, 99.625 294.993, 101 294.737 C 103.117 294.344, 103.002 294.251, 100.250 294.136 C 97.764 294.032, 97.004 294.412, 97.015 295.750 M 158.250 294.750 C 177.362 294.902, 208.637 294.902, 227.750 294.750 C 246.862 294.598, 231.225 294.473, 193 294.473 C 154.775 294.473, 139.137 294.598, 158.250 294.750 M 266.768 294.725 C 268.565 294.947, 271.265 294.943, 272.768 294.715 C 274.271 294.486, 272.800 294.304, 269.500 294.310 C 266.200 294.315, 264.971 294.502, 266.768 294.725 M 138.500 308.731 C 206.062 309.421, 260 309.430, 260 308.750 C 260 308.337, 226.813 308.105, 186.250 308.233 C 145.688 308.361, 124.200 308.585, 138.500 308.731 M 411 358.063 L 411 402.127 414.250 401.813 L 417.500 401.500 417.761 357.750 L 418.021 314 414.511 314 L 411 314 411 358.063 M 115.840 316.805 C 114.932 316.973, 113.971 318.098, 113.704 319.305 C 113.438 320.512, 113.138 338.040, 113.040 358.257 L 112.860 395.013 186.180 394.757 L 259.500 394.500 259.500 355.500 L 259.500 316.500 188.495 316.500 C 149.443 316.500, 116.748 316.637, 115.840 316.805 M 341.912 318.962 C 335.446 320.126, 327.050 324.324, 321.610 329.112 C 310.893 338.546, 306.582 353.397, 310.593 367.068 C 314.162 379.232, 322.942 389.739, 333.782 394.820 C 338.851 397.196, 340.692 397.499, 350 397.493 C 359.595 397.487, 360.967 397.241, 365.916 394.642 C 373.173 390.831, 380.964 382.831, 384.558 375.500 C 387.272 369.965, 387.500 368.647, 387.500 358.500 C 387.500 348.481, 387.251 346.992, 384.705 341.808 C 376.562 325.226, 359.049 315.876, 341.912 318.962 M 339.734 326.027 C 330.353 328.390, 321.495 335.229, 317.186 343.437 C 314.914 347.764, 314.528 349.735, 314.528 357 C 314.528 364.350, 314.903 366.215, 317.299 370.786 C 321.252 378.326, 326.318 383.518, 332.839 386.711 C 337.777 389.129, 339.650 389.478, 347.500 389.447 C 358.328 389.403, 363.509 387.410, 370.995 380.408 C 378.082 373.779, 381 367.107, 381 357.529 C 381 348.701, 378.522 342.691, 371.935 335.545 C 364.757 327.758, 350.083 323.420, 339.734 326.027 M 340.763 348.565 C 334.755 351.825, 333.043 361.521, 337.533 366.857 C 344.664 375.332, 358.354 371.589, 360.415 360.599 C 362.211 351.026, 350.004 343.551, 340.763 348.565 M 366.502 355.250 C 367.261 357.587, 368.082 360.400, 368.325 361.500 C 368.592 362.703, 368.814 362.185, 368.884 360.200 C 368.985 357.315, 366.687 351, 365.535 351 C 365.308 351, 365.743 352.913, 366.502 355.250 M 376.500 361.058 C 376.500 365.935, 376.806 369.155, 377.180 368.213 C 378.105 365.882, 378.146 354.777, 377.235 353.345 C 376.831 352.711, 376.500 356.181, 376.500 361.058 M 374.564 372.707 C 374.022 374.132, 374.136 374.247, 375.124 373.267 C 375.808 372.588, 376.115 371.781, 375.807 371.474 C 375.499 371.166, 374.940 371.721, 374.564 372.707 M 371.405 377.108 C 368.446 380.383, 364.222 383.122, 358.108 385.735 C 355.023 387.052, 353.850 387.849, 355.500 387.506 C 360.686 386.428, 366.418 383.181, 370.483 379.017 C 372.641 376.808, 374.159 375, 373.858 375 C 373.557 375, 372.453 375.949, 371.405 377.108 M 149.750 404.750 C 170.238 404.901, 203.762 404.901, 224.250 404.750 C 244.738 404.599, 227.975 404.475, 187 404.475 C 146.025 404.475, 129.262 404.599, 149.750 404.750 M 95 417 C 95 418.543, 95.628 418.974, 97.750 418.884 C 99.442 418.813, 99.827 418.592, 98.750 418.311 C 97.787 418.059, 97 417.211, 97 416.427 C 97 415.642, 96.550 415, 96 415 C 95.450 415, 95 415.900, 95 417 M 389.750 415.757 C 382.398 415.995, 380 416.404, 380 417.420 C 380 419.273, 382.039 419.553, 392.809 419.179 C 400.688 418.905, 402.071 418.610, 401.809 417.260 C 401.434 415.324, 401.775 415.367, 389.750 415.757 M 85 418.531 C 85 420.260, 87.387 421.497, 88.908 420.557 C 90.472 419.590, 89.004 417, 86.893 417 C 85.852 417, 85 417.689, 85 418.531 M 196.820 419.749 C 211.296 419.906, 234.696 419.906, 248.820 419.749 C 262.944 419.593, 251.100 419.465, 222.500 419.465 C 193.900 419.465, 182.344 419.593, 196.820 419.749" stroke="none" fill="white" fill-rule="evenodd"/>
</svg>